<?xml version="1.0" encoding="UTF-8" standalone="no"?>
<svg
   xmlns:dc="http://purl.org/dc/elements/1.1/"
   xmlns:cc="http://creativecommons.org/ns#"
   xmlns:rdf="http://www.w3.org/1999/02/22-rdf-syntax-ns#"
   xmlns:svg="http://www.w3.org/2000/svg"
   xmlns="http://www.w3.org/2000/svg"
   xmlns:sodipodi="http://sodipodi.sourceforge.net/DTD/sodipodi-0.dtd"
   xmlns:inkscape="http://www.inkscape.org/namespaces/inkscape"
   sodipodi:docname="day_mode_icon.svg"
   inkscape:version="1.0beta1 (76ce730, 2019-10-19)"
   id="svg1513"
   version="1.1"
   viewBox="0 0 16.933332 16.933332"
   height="16.933332mm"
   width="16.933332mm">
  <defs
     id="defs1507" />
  <sodipodi:namedview
     inkscape:window-maximized="0"
     inkscape:window-y="23"
     inkscape:window-x="0"
     inkscape:window-height="855"
     inkscape:window-width="1440"
     fit-margin-bottom="0"
     fit-margin-right="0"
     fit-margin-left="0"
     fit-margin-top="0"
     showgrid="false"
     inkscape:document-rotation="0"
     inkscape:current-layer="layer1"
     inkscape:document-units="mm"
     inkscape:cy="49.664349"
     inkscape:cx="77.851149"
     inkscape:zoom="3.2605083"
     inkscape:pageshadow="2"
     inkscape:pageopacity="0.0"
     borderopacity="1.0"
     bordercolor="#666666"
     pagecolor="#ffffff"
     id="base" />
  <metadata
     id="metadata1510">
    <rdf:RDF>
      <cc:Work
         rdf:about="">
        <dc:format>image/svg+xml</dc:format>
        <dc:type
           rdf:resource="http://purl.org/dc/dcmitype/StillImage" />
        <dc:title></dc:title>
      </cc:Work>
    </rdf:RDF>
  </metadata>
  <g
     transform="translate(-21.166666)"
     id="layer1"
     inkscape:groupmode="layer"
     inkscape:label="Layer 1">
    <path
       id="path833-91"
       style="font-variation-settings:normal;opacity:1;vector-effect:none;fill:#8585FF;fill-opacity:0.2;stroke-width:3;stroke-linecap:butt;stroke-linejoin:miter;stroke-miterlimit:4;stroke-dasharray:none;stroke-dashoffset:0;stroke-opacity:1;stop-color:#000000;stop-opacity:1"
       d="M 38.099999,8.4666664 A 8.4666664,8.4666664 0 0 1 29.633333,16.933332 8.4666664,8.4666664 0 0 1 21.166666,8.4666664 8.4666664,8.4666664 0 0 1 29.633333,2.7499996e-7 8.4666664,8.4666664 0 0 1 38.099999,8.4666664"
       inkscape:connector-curvature="0" />
    <path
       id="path833-91-5"
       style="font-variation-settings:normal;opacity:1;vector-effect:none;fill:#ffe680;fill-opacity:1;stroke-width:3;stroke-linecap:butt;stroke-linejoin:miter;stroke-miterlimit:4;stroke-dasharray:none;stroke-dashoffset:0;stroke-opacity:1;stop-color:#000000;stop-opacity:1"
       d="M 34.924999,8.4666664 A 5.2916667,5.2916667 0 0 1 29.633333,13.758332 5.2916667,5.2916667 0 0 1 24.341666,8.4666664 5.2916667,5.2916667 0 0 1 29.633333,3.1749992 5.2916667,5.2916667 0 0 1 34.924999,8.4666664"
       inkscape:connector-curvature="0" />
    <path
       id="path2178"
       d="m 35.677539,6.9962104 -0.386,-1.1165001 -0.5891,-1.0196999 1.0584,0.0461 1.0905,0.2222 -0.5273,1.0024002 z"
       style="font-variation-settings:normal;opacity:1;vector-effect:none;fill:#ffe680;fill-opacity:1;stroke-width:3;stroke-linecap:butt;stroke-linejoin:miter;stroke-miterlimit:4;stroke-dasharray:none;stroke-dashoffset:0;stroke-opacity:1;stop-color:#000000;stop-opacity:1" />
    <path
       id="path2176"
       d="m 33.933339,3.9706103 -0.9228,-0.7298999 -1.0464,-0.5448001 0.9123,-0.5322 1.0331,-0.4028 0.0983,1.1298 z"
       style="font-variation-settings:normal;opacity:1;vector-effect:none;fill:#ffe680;fill-opacity:1;stroke-width:3;stroke-linecap:butt;stroke-linejoin:miter;stroke-miterlimit:4;stroke-dasharray:none;stroke-dashoffset:0;stroke-opacity:1;stop-color:#000000;stop-opacity:1" />
    <path
       id="path2174"
       d="m 30.829539,2.3579103 -1.0868,-0.1122 -1.1792,0.0928 0.5439,-0.9389 0.7226,-0.88300001 0.636,0.91010001 z"
       style="font-variation-settings:normal;opacity:1;vector-effect:none;fill:#ffe680;fill-opacity:1;stroke-width:3;stroke-linecap:butt;stroke-linejoin:miter;stroke-miterlimit:4;stroke-dasharray:none;stroke-dashoffset:0;stroke-opacity:1;stop-color:#000000;stop-opacity:1" />
    <path
       id="path2172"
       d="m 27.425639,2.6515103 -1.0577,0.5218001 -0.9412,0.713 -0.0613,-1.0748 0.1135,-1.1239001 1.0356,0.417 z"
       style="font-variation-settings:normal;opacity:1;vector-effect:none;fill:#ffe680;fill-opacity:1;stroke-width:3;stroke-linecap:butt;stroke-linejoin:miter;stroke-miterlimit:4;stroke-dasharray:none;stroke-dashoffset:0;stroke-opacity:1;stop-color:#000000;stop-opacity:1" />
    <path
       id="path2170"
       d="m 24.636439,4.7645103 -0.6094,1.0102001 -0.4077,1.1067 -0.6374,-0.855 -0.5203,-0.9914001 1.1031,-0.2242 z"
       style="font-variation-settings:normal;opacity:1;vector-effect:none;fill:#ffe680;fill-opacity:1;stroke-width:3;stroke-linecap:butt;stroke-linejoin:miter;stroke-miterlimit:4;stroke-dasharray:none;stroke-dashoffset:0;stroke-opacity:1;stop-color:#000000;stop-opacity:1" />
    <path
       id="path2168"
       d="m 23.427739,8.0465105 0.0314,1.1814 0.2539,1.1526995 -0.9939,-0.3592 -0.9724,-0.5379996 0.8041,-0.8025 z"
       style="font-variation-settings:normal;opacity:1;vector-effect:none;fill:#ffe680;fill-opacity:1;stroke-width:3;stroke-linecap:butt;stroke-linejoin:miter;stroke-miterlimit:4;stroke-dasharray:none;stroke-dashoffset:0;stroke-opacity:1;stop-color:#000000;stop-opacity:1" />
    <path
       id="path2166"
       d="m 24.179839,11.46431 0.6058,0.9061 0.827,0.845 -1.0753,0.1781 -1.1432,0.007 0.3984,-0.9168 z"
       style="font-variation-settings:normal;opacity:1;vector-effect:none;fill:#ffe680;fill-opacity:1;stroke-width:3;stroke-linecap:butt;stroke-linejoin:miter;stroke-miterlimit:4;stroke-dasharray:none;stroke-dashoffset:0;stroke-opacity:1;stop-color:#000000;stop-opacity:1" />
    <path
       id="path2164"
       d="m 26.583139,13.88881 1.0786,0.4775 1.1498,0.2655 -0.7923,0.7341 -0.9412,0.6304 -0.3367,-1.0604 z"
       style="font-variation-settings:normal;opacity:1;vector-effect:none;fill:#ffe680;fill-opacity:1;stroke-width:3;stroke-linecap:butt;stroke-linejoin:miter;stroke-miterlimit:4;stroke-dasharray:none;stroke-dashoffset:0;stroke-opacity:1;stop-color:#000000;stop-opacity:1" />
    <path
       id="path2162"
       d="m 29.993139,14.67491 1.1711,-0.1796 1.1122,-0.3976 -0.2486,1.0382 -0.4324,1.0362 -0.8815,-0.7034 z"
       style="font-variation-settings:normal;opacity:1;vector-effect:none;fill:#ffe680;fill-opacity:1;stroke-width:3;stroke-linecap:butt;stroke-linejoin:miter;stroke-miterlimit:4;stroke-dasharray:none;stroke-dashoffset:0;stroke-opacity:1;stop-color:#000000;stop-opacity:1" />
    <path
       id="path2160"
       d="m 33.289939,13.49841 0.8814,-0.7779 0.7204,-0.9299 0.3549,1.0006 0.206,1.0938 -1.1213,-0.1142 z"
       style="font-variation-settings:normal;opacity:1;vector-effect:none;fill:#ffe680;fill-opacity:1;stroke-width:3;stroke-linecap:butt;stroke-linejoin:miter;stroke-miterlimit:4;stroke-dasharray:none;stroke-dashoffset:0;stroke-opacity:1;stop-color:#000000;stop-opacity:1" />
    <path
       id="path4649"
       d="m 35.425539,10.73891 0.326,-1.1376996 0.1058,-1.0875 0.8394,0.5428001 0.7663,0.8059 -1.0091,0.5314995 z"
       style="font-variation-settings:normal;opacity:1;vector-effect:none;fill:#ffe680;fill-opacity:1;stroke-width:3;stroke-linecap:butt;stroke-linejoin:miter;stroke-miterlimit:4;stroke-dasharray:none;stroke-dashoffset:0;stroke-opacity:1;stop-color:#000000;stop-opacity:1" />
  </g>
</svg>
