<?xml version="1.0" encoding="UTF-8" standalone="no"?>
<svg
   xmlns:dc="http://purl.org/dc/elements/1.1/"
   xmlns:cc="http://creativecommons.org/ns#"
   xmlns:rdf="http://www.w3.org/1999/02/22-rdf-syntax-ns#"
   xmlns:svg="http://www.w3.org/2000/svg"
   xmlns="http://www.w3.org/2000/svg"
   xmlns:sodipodi="http://sodipodi.sourceforge.net/DTD/sodipodi-0.dtd"
   xmlns:inkscape="http://www.inkscape.org/namespaces/inkscape"
   id="svg8"
   version="1.1"
   viewBox="0 0 16.933332 16.933332"
   height="16.933332mm"
   width="16.933332mm"
   inkscape:version="1.0beta1 (76ce730, 2019-10-19)"
   sodipodi:docname="night_mode_icon.svg">
  <defs
     id="defs2" />
  <sodipodi:namedview
     id="base"
     pagecolor="#ffffff"
     bordercolor="#666666"
     borderopacity="1.0"
     inkscape:pageopacity="0.0"
     inkscape:pageshadow="2"
     inkscape:zoom="2.493097"
     inkscape:cx="40.911089"
     inkscape:cy="7.2863763"
     inkscape:document-units="mm"
     inkscape:current-layer="layer1"
     inkscape:document-rotation="0"
     showgrid="false"
     fit-margin-top="0"
     fit-margin-left="0"
     fit-margin-right="0"
     fit-margin-bottom="0"
     inkscape:window-width="1440"
     inkscape:window-height="855"
     inkscape:window-x="0"
     inkscape:window-y="23"
     inkscape:window-maximized="0"
     inkscape:snap-global="false" />
  <metadata
     id="metadata5">
    <rdf:RDF>
      <cc:Work
         rdf:about="">
        <dc:format>image/svg+xml</dc:format>
        <dc:type
           rdf:resource="http://purl.org/dc/dcmitype/StillImage" />
        <dc:title />
      </cc:Work>
    </rdf:RDF>
  </metadata>
  <g
     inkscape:label="Layer 1"
     inkscape:groupmode="layer"
     id="layer1"
     transform="translate(-3.7797613,-28.72619)">
    <path
       d="m 20.713094,37.192856 a 8.4666662,8.4666662 0 0 1 -8.466666,8.466666 8.4666662,8.4666662 0 0 1 -8.4666667,-8.466666 8.4666662,8.4666662 0 0 1 8.4666667,-8.466666 8.4666662,8.4666662 0 0 1 8.466666,8.466666"
       style="font-variation-settings:normal;opacity:1;vector-effect:none;fill:#000000;fill-opacity:1;stroke-width:3.00001;stroke-linecap:butt;stroke-linejoin:miter;stroke-miterlimit:4;stroke-dasharray:none;stroke-dashoffset:0;stroke-opacity:1;stop-color:#000000;stop-opacity:1"
       id="path833" />
    <path
       id="path833-9"
       style="font-variation-settings:normal;opacity:1;vector-effect:none;fill:#FFE680;fill-opacity:1;stroke-width:11.3386;stroke-linecap:butt;stroke-linejoin:miter;stroke-miterlimit:4;stroke-dasharray:none;stroke-dashoffset:0;stroke-opacity:1;stop-color:#000000;stop-opacity:1"
       d="M 38.878906,3.828125 A 37.571429,37.571429 0 0 1 41.892578,18.572266 37.571429,37.571429 0 0 1 14.130859,54.839844 29.000001,29.000001 0 0 0 32,61 29.000001,29.000001 0 0 0 61,32 29.000001,29.000001 0 0 0 38.878906,3.828125 Z"
       transform="matrix(0.26458333,0,0,0.26458333,3.7797613,28.72619)"
       inkscape:connector-curvature="0" />
  </g>
</svg>
