<svg
  version="1.1"
  viewBox="0 0 828.26325 270.80054">
  <g
     id="g981">
    <path
       d="M 69.48788,0 C 31.1751,0 0,32.61059 0,72.74045 V 198.055 c 0,40.12987 31.17607,72.74553 69.48788,72.74553 H 758.7735 c 38.3127,0 69.4898,-32.61566 69.4898,-72.74553 V 5.84382 c -0.019,-3.60102 -2,-5.68155 -6.9765,-5.84159 H 220.29327 Z m 0,21.01625 H 682.6259 c 8.157,0.43104 14.4593,1.90061 18.9474,6.50681 7.8555,8.06197 84.9293,82.07514 102.73,100.35813 1.8839,1.93509 3.8964,6.37495 3.8964,11.50813 v 58.66132 c 0,28.84892 -21.8776,51.7242 -49.4209,51.7242 H 69.4932 c -27.54239,0 -49.42089,-22.87528 -49.42089,-51.7242 V 72.73609 c 0,-0.90162 0.0193,-1.79645 0.0619,-2.6858 1.30928,-27.57002 22.67685,-49.0386 49.35799,-49.0386 z"
       fill="#0000ff"
       id="path957"
       style="fill-opacity:1;stroke:none;stroke-width:0.999984"
       class="logo" />
    <path
       d="m 539.5917,36.40978 -0.068,135.74053 c 0,17.73633 5.7753,32.12681 17.3285,43.16739 11.7332,11.22111 26.2205,18.88542 44.6327,18.88542 1.6257,0 4.7893,-0.14503 4.7893,-0.14503 v -30.53858 c -1.4629,0.1785 -2.9571,-0.0101 -4.5172,-0.0101 -9.3867,0 -16.3858,-3.57688 -22.162,-9.36867 -5.7765,-5.79149 -8.6669,-13.38947 -8.6617,-22.80124 l 0.068,-134.92917 z"
       fill="#0000ff"
       id="path965"
       style="fill-opacity:1;stroke:none;stroke-width:0.999984"
       class="logo" />
    <path
       d="m 48.89544,88.53966 c 0,-15.02233 5.05444,-27.69172 15.1637,-38.00816 10.10849,-10.31644 22.56459,-15.47466 37.36638,-15.47466 6.85957,0 12.81609,0.99594 17.8713,2.98631 5.23501,1.6288 9.65764,3.80061 13.268,6.51552 3.24931,1.99088 6.40833,4.52476 9.47717,7.60143 l 5.957,5.70143 c 1.26361,-1.62891 2.34665,-2.89595 3.24921,-3.80092 1.08314,-1.086 2.07599,-1.99087 2.97855,-2.71481 1.62466,-1.6289 5.77653,-4.70578 12.45611,-9.23064 6.67909,-4.70548 15.8856,-7.05832 27.61884,-7.05832 14.44084,0 26.89694,5.15812 37.36638,15.47466 10.4704,10.31644 15.70464,22.98583 15.70464,38.00816 V 234.05708 H 212.17203 V 90.71005 c 0,-6.3347 -2.52722,-11.94525 -7.58166,-16.83268 -4.87396,-4.88662 -10.6504,-7.32972 -17.32939,-7.32972 -6.49862,0 -11.9142,2.26207 -16.24655,6.78662 -4.33235,4.34371 -6.49852,10.13551 -6.49852,17.37527 V 234.05657 H 129.58617 V 90.70954 c 0,-5.97283 -2.16617,-11.49291 -6.49862,-16.56087 -4.33235,-5.06765 -9.47707,-7.60143 -15.43369,-7.60143 -5.95661,0 -11.46325,2.53378 -16.5175,7.60143 -4.69339,5.06735 -7.04013,10.58825 -7.04013,16.56087 V 234.05657 H 56.2045 c -4.86419,0 -7.30897,-2.56065 -7.30897,-7.68216 z"
       fill="#0000ff"
       id="path971"
       style="fill-opacity:1;stroke:none;stroke-width:0.999984"
       class="logo" />
    <path
       d="m 325.92573,233.97594 c -14.76501,0.48682 -35.97484,-4.07232 -49.33284,-17.10347 -13.35799,-13.21198 -20.03699,-29.59131 -20.03699,-49.13799 0,-19.90874 6.85957,-36.74041 20.5789,-50.49499 13.71933,-13.75458 30.5074,-20.63288 50.36439,-20.63288 19.857,0 36.19355,6.87749 49.00963,20.63288 12.81706,13.75458 19.2251,31.67347 19.2251,53.75362 v 62.98384 h -31.68024 v -61.89764 c 0,-13.39352 -3.42988,-24.07203 -10.28944,-32.03452 -6.85967,-8.14463 -15.9756,-12.21705 -27.34789,-12.21705 -10.28945,0 -19.1351,3.80082 -26.536,11.40265 -7.40118,7.60153 -11.10134,16.55986 -11.10134,26.8763 0,11.04058 3.88112,20.36108 11.64325,27.96251 7.9427,7.60143 19.68959,9.79078 29.32391,9.40397 h 21.93269 v 30.53857 z"
       fill="#0000ff"
       id="path969"
       style="fill-opacity:1;stroke:none;stroke-width:0.999984"
       class="logo" />
    <path
       d="m 467.4988,98.58024 c -18.4123,0 -33.485,5.60873 -45.2182,16.82963 -11.5533,11.04059 -17.32847,25.43006 -17.32847,43.16639 v 75.47169 h 31.40927 v -74.65831 c 0,-9.41137 2.8852,-17.01117 8.6617,-22.80327 5.7765,-5.79179 13.3609,-8.68875 22.7475,-8.68875 9.0258,0 16.4265,2.98682 22.2036,8.95975 5.9571,5.97231 8.934,13.48176 8.934,22.53146 l -0.1529,1.81451 h 31.4092 l 0.1529,-2.62779 c 1.04,-17.88441 -5.8668,-32.39761 -17.6003,-43.43718 -11.7332,-11.04058 -26.806,-16.55884 -45.2182,-16.55884 z"
       fill="#0000ff"
       id="path967"
       style="fill-opacity:1;stroke:none;stroke-width:0.999984"
       class="logo" />
    <path
       d="m 656.9725,158.62088 c 0,-17.73633 5.7765,-32.1258 17.3294,-43.16537 11.7332,-11.22111 26.8069,-16.83166 45.2192,-16.83166 18.4122,0 33.4859,5.52009 45.2191,16.55986 11.7333,11.04058 17.6004,25.5193 17.6004,43.43717 v 67.58629 c -0.039,5.32475 -2.4795,7.8854 -7.4874,7.8854 h -23.9223 v -74.65729 c 0,-9.0493 -2.9785,-16.55986 -8.9355,-22.53248 -5.7766,-5.97262 -13.178,-8.95893 -22.2037,-8.95893 -9.3869,0 -16.9684,2.89564 -22.7446,8.68723 -5.7765,5.79179 -8.6648,13.39352 -8.6648,22.80428 v 74.65729 h -31.4092 z"
       fill="#0000ff"
       id="path959"
       style="fill-opacity:1;stroke:none;stroke-width:0.999984"
       class="logo" />
    <path
       d="m 616.136,92.69788 h 31.6802 l 10e-5,-15.49698 v -4.28763 c 0,-8.585 -6.4197,-15.49596 -14.3934,-15.49596 h -2.8932 c -7.9741,0 -14.3934,6.91137 -14.3934,15.49596 v 4.28763 z"
       color="#000000"
       color-rendering="auto"
       enable-background="accumulate"
       fill="#0000ff"
       fill-rule="evenodd"
       image-rendering="auto"
       shape-rendering="auto"
       solid-color="#000000"
       style="isolation:auto;mix-blend-mode:normal;fill-opacity:1;stroke:none;stroke-width:0.999984"
       id="path961"
       class="logo" />
    <path
       d="m 616.136,100.71006 h 31.6802 V 234.00637 H 616.136 Z"
       color="#000000"
       color-rendering="auto"
       enable-background="accumulate"
       fill="#0000ff"
       fill-rule="evenodd"
       image-rendering="auto"
       shape-rendering="auto"
       solid-color="#000000"
       style="isolation:auto;mix-blend-mode:normal;fill-opacity:1;stroke:none;stroke-width:0.999984"
       id="path963"
       class="logo" />
  </g>
</svg>